<svg id="Layer_1" data-name="Layer 1" xmlns="http://www.w3.org/2000/svg" xmlns:xlink="http://www.w3.org/1999/xlink" width="40" height="40" viewBox="0 0 91.787 108.16"><defs><style>.cls-1{fill:url(#linear-gradient);}.cls-2{fill:url(#linear-gradient-2);}.cls-3{fill:url(#linear-gradient-3);}.cls-4{fill:url(#linear-gradient-4);}</style><linearGradient id="linear-gradient" x1="396.015" y1="-176.899" x2="436.322" y2="-136.592" gradientTransform="matrix(1, 0, 0, -1, -374.7, -134.86)" gradientUnits="userSpaceOnUse"><stop offset="0.8" stop-color="#d9d9d9"/><stop offset="0.85" stop-color="#d5d5d5"/><stop offset="0.9" stop-color="#c9c9c8"/><stop offset="0.95" stop-color="#b4b4b4"/><stop offset="1" stop-color="#9b9b9a"/></linearGradient><linearGradient id="linear-gradient-2" x1="388.849" y1="-200.531" x2="416.396" y2="-228.078" gradientTransform="matrix(1, 0, 0, -1, -374.7, -134.86)" gradientUnits="userSpaceOnUse"><stop offset="0" stop-color="#fff"/><stop offset="0.1" stop-color="#ececec"/><stop offset="0.21" stop-color="#dedede"/><stop offset="0.31" stop-color="#d9d9d9"/></linearGradient><linearGradient id="linear-gradient-3" x1="452.363" y1="-177.05" x2="452.363" y2="-162.825" gradientTransform="matrix(1, 0, 0, -1, -374.7, -134.86)" gradientUnits="userSpaceOnUse"><stop offset="0" stop-color="#9b9b9a"/><stop offset="0.12" stop-color="#b4b4b4"/><stop offset="0.25" stop-color="#c9c9c8"/><stop offset="0.38" stop-color="#d5d5d5"/><stop offset="0.5" stop-color="#d9d9d9"/><stop offset="0.62" stop-color="#d5d5d5"/><stop offset="0.75" stop-color="#c9c9c8"/><stop offset="0.88" stop-color="#b4b4b4"/><stop offset="1" stop-color="#9b9b9a"/></linearGradient><linearGradient id="linear-gradient-4" x1="412.262" y1="-176.051" x2="450.677" y2="-198.233" gradientTransform="matrix(1, 0, 0, -1, -374.7, -134.86)" gradientUnits="userSpaceOnUse"><stop offset="0" stop-color="#7c7c7d"/><stop offset="0.01" stop-color="#7f7f80"/><stop offset="0.09" stop-color="#9b9b9c"/><stop offset="0.18" stop-color="#b2b2b2"/><stop offset="0.29" stop-color="#c3c3c4"/><stop offset="0.42" stop-color="#d0d0d0"/><stop offset="0.59" stop-color="#d7d7d7"/><stop offset="1" stop-color="#d9d9d9"/></linearGradient></defs><path class="cls-1" d="M84.41,27.97a7.077,7.077,0,0,1,5,2.08L63.5,3.61A12.272,12.272,0,0,0,54.77,0H12.36A12.37,12.37,0,0,0,0,12.35v3.27A12.37,12.37,0,0,0,12.35,27.97h72" transform="translate(0 0)"/><path class="cls-2" d="M34.01,49.25a7.077,7.077,0,0,1,2.08-5L9.64,70.18a12.272,12.272,0,0,0-3.61,8.73v16.9a12.37,12.37,0,0,0,12.35,12.35h3.27A12.37,12.37,0,0,0,34,95.81V49.25" transform="translate(0 0)"/><path class="cls-3" d="M63.54,42.19V27.97H84.41a7.11,7.11,0,1,1,.533,14.21c-.177.007-.355.007-.533,0Z" transform="translate(0 0)"/><path class="cls-4" d="M84.41,42.19a7.077,7.077,0,0,0,5-2.08L63.5,66.55a12.272,12.272,0,0,1-8.73,3.61H34.01V49.25a7.11,7.11,0,0,1,7.11-7.11Z" transform="translate(0 0)"/></svg>