<?xml version="1.0" standalone="no"?><!DOCTYPE svg PUBLIC "-//W3C//DTD SVG 1.1//EN" "http://www.w3.org/Graphics/SVG/1.1/DTD/svg11.dtd"><svg t="1715666672118" class="icon" viewBox="0 0 1024 1024" version="1.1" xmlns="http://www.w3.org/2000/svg" p-id="9904" xmlns:xlink="http://www.w3.org/1999/xlink" width="40" height="40"><path d="M0 0m170.666667 0l682.666666 0q170.666667 0 170.666667 170.666667l0 682.666666q0 170.666667-170.666667 170.666667l-682.666666 0q-170.666667 0-170.666667-170.666667l0-682.666666q0-170.666667 170.666667-170.666667Z" fill="#42ADFF" opacity=".65" p-id="9905"></path><path d="M554.666667 213.333333v128a85.333333 85.333333 0 0 0 78.933333 85.12L640 426.666667h128v298.666666a85.333333 85.333333 0 0 1-85.333333 85.333334H341.333333a85.333333 85.333333 0 0 1-85.333333-85.333334V298.666667a85.333333 85.333333 0 0 1 85.333333-85.333334h213.333334z m64 426.666667h-213.333334a21.333333 21.333333 0 0 0-3.84 42.325333L405.333333 682.666667h213.333334a21.333333 21.333333 0 1 0 0-42.666667z m0-128h-213.333334a21.333333 21.333333 0 0 0-3.84 42.325333L405.333333 554.666667h213.333334a21.333333 21.333333 0 1 0 0-42.666667zM597.333333 213.333333l170.666667 170.666667h-128a42.666667 42.666667 0 0 1-42.666667-42.666667V213.333333z" fill="#FFFFFF" p-id="9906"></path></svg>